<svg width="40" height="40" viewBox="0 0 40 40" fill="none" xmlns="http://www.w3.org/2000/svg">
<path d="M20 36.6667C21.8333 36.6667 23.3333 35.1667 23.3333 33.3333H16.6667C16.6667 35.1667 18.1667 36.6667 20 36.6667ZM30 26.6667V18.3333C30 13.2167 27.2833 8.93332 22.5 7.79999V6.66666C22.5 5.28332 21.3833 4.16666 20 4.16666C18.6167 4.16666 17.5 5.28332 17.5 6.66666V7.79999C12.7333 8.93332 9.99999 13.2 9.99999 18.3333V26.6667L6.66666 30V31.6667H33.3333V30L30 26.6667ZM26.6667 28.3333H13.3333V18.3333C13.3333 14.2 15.85 10.8333 20 10.8333C24.15 10.8333 26.6667 14.2 26.6667 18.3333V28.3333Z" fill="#434343"/>
</svg>
