<svg width="36" height="43" viewBox="0 0 36 43" fill="none" xmlns="http://www.w3.org/2000/svg">
<path fill-rule="evenodd" clip-rule="evenodd" d="M9 11H16.1249V18.125H9V11ZM6 8H9H16.1249H19.1249V11V18.125V21.125H16.1249H9H6V18.125V11V8ZM23.875 11H30.9999V18.125H23.875V11ZM20.875 8H23.875H30.9999H33.9999V11V18.125V21.125H30.9999H23.875H20.875V18.125V11V8ZM30.9999 25.875H23.875V33H30.9999V25.875ZM23.875 22.875H20.875V25.875V33V36H23.875H30.9999H33.9999V33V25.875V22.875H30.9999H23.875ZM9 25.875H16.1249V33H9V25.875ZM6 22.875H9H16.1249H19.1249V25.875V33V36H16.1249H9H6V33V25.875V22.875Z" fill="#454545"/>
</svg>
